<svg width="170" height="170" viewBox="0 0 170 170" fill="none" xmlns="http://www.w3.org/2000/svg">
<path d="M73.5 56L80.4043 57L89.9043 56L91.4043 59V60.5L92.4043 61.5L91.4043 62.5L93 63.5L92.4043 64.5L93.9043 65.5L96.9043 80L97.5 102L93 114L73.5 102L72 79.5L73.5 56Z" fill="black"/>
<path d="M73.5 102L93 114L75.4043 101L72 79.5L73.5 102Z" fill="white"/>
<path d="M83.4044 96L81.4044 91L83.9044 92.5L89.9044 102L83.4044 96Z" fill="white"/>
<path d="M95.4043 86L90.9044 83.5L83.9044 75L92.9044 81.5L95.4043 86Z" fill="white"/>
<path d="M95.4043 89.5L95.9043 102L93.4044 90.5L85.4044 86L95.4043 89.5Z" fill="white"/>
<path d="M78.4043 68C77.9043 72.8333 78.4043 75.6 78.4043 76L85.9044 83L80.4044 76L78.4043 68Z" fill="white"/>
<path d="M90.4043 61.5H92.4043L91.4043 60.5L90.4043 61.5Z" fill="white"/>
<path d="M90.4043 63.5H92.9043L91.4043 62.5L90.4043 63.5Z" fill="white"/>
<path d="M90.4043 65.5H93.9043L92.4043 64.5L90.4043 65.5Z" fill="white"/>
<path d="M89.4043 57.5L91.4043 59L89.9043 56L80.4043 57L89.4043 57.5Z" fill="white"/>
</svg>
