<svg width="170" height="170" viewBox="0 0 170 170" fill="none" xmlns="http://www.w3.org/2000/svg">
<path d="M142 118C144.8 99.2 137.167 78.8333 133 71L143.5 73.5C146.7 91.9 143.833 110.833 142 118Z" fill="#1B1B1B"/>
<path d="M142.522 69.6157C143.648 69.6757 144.644 70.3623 145.101 71.3926V71.3926C145.985 73.3866 144.508 75.6262 142.327 75.6L118.708 75.317C115.972 75.2842 113.263 75.8702 110.785 77.0312L31.7501 114.06C29.7203 115.011 27.3055 114.108 26.3973 112.059V112.059C25.5156 110.069 26.3863 107.74 28.3568 106.817L104.27 71.251C108.891 69.0861 113.975 68.0954 119.071 68.3668L142.522 69.6157Z" fill="#D9D9D9"/>
<path d="M22 108.457L58.1156 89L66.6166 104.779C67.4225 106.275 66.8632 108.141 65.3672 108.947V108.947C63.8712 109.753 62.0052 109.194 61.1992 107.698L59.8127 105.124L29.1145 121.663L22 108.457Z" fill="#1F1F1F"/>
</svg>
