<svg width="170" height="170" viewBox="0 0 170 170" fill="none" xmlns="http://www.w3.org/2000/svg">
<mask id="path-1-inside-1_258_19" fill="white">
<path fill-rule="evenodd" clip-rule="evenodd" d="M32.733 79.6872C31.4532 92.2495 42.8446 102.492 55.1669 99.7337L78.6023 94.4876C82.5571 93.6023 86.6932 94.0401 90.375 95.7338L110.9 105.176C122.392 110.462 135.673 102.874 136.955 90.2902C138.2 78.074 127.382 68.076 115.301 70.2773L91.6926 74.5794C88.2933 75.1988 84.7886 74.8539 81.5753 73.5837L57.95 64.2449C46.5438 59.7362 33.9761 67.4854 32.733 79.6872ZM39.6774 85.3795C41.2336 89.8023 45.605 92.5942 50.2721 92.1459L79.8683 89.3034C82.3294 89.067 84.813 89.3263 87.1722 90.0661L116.723 99.3322C120.132 100.401 123.851 99.6861 126.62 97.4286C131.171 93.7191 131.797 86.9531 128.088 82.402C125.875 79.6868 122.449 78.1814 118.955 78.4276L87.5833 80.6379C85.4904 80.7853 83.3877 80.5757 81.3651 80.018L64.5459 75.38L52.2764 71.9966C47.7802 70.7567 42.979 72.7129 40.5756 76.7099C39.0094 79.3147 38.6686 82.5124 39.6774 85.3795Z"/>
</mask>
<path fill-rule="evenodd" clip-rule="evenodd" d="M32.733 79.6872C31.4532 92.2495 42.8446 102.492 55.1669 99.7337L78.6023 94.4876C82.5571 93.6023 86.6932 94.0401 90.375 95.7338L110.9 105.176C122.392 110.462 135.673 102.874 136.955 90.2902C138.2 78.074 127.382 68.076 115.301 70.2773L91.6926 74.5794C88.2933 75.1988 84.7886 74.8539 81.5753 73.5837L57.95 64.2449C46.5438 59.7362 33.9761 67.4854 32.733 79.6872ZM39.6774 85.3795C41.2336 89.8023 45.605 92.5942 50.2721 92.1459L79.8683 89.3034C82.3294 89.067 84.813 89.3263 87.1722 90.0661L116.723 99.3322C120.132 100.401 123.851 99.6861 126.62 97.4286C131.171 93.7191 131.797 86.9531 128.088 82.402C125.875 79.6868 122.449 78.1814 118.955 78.4276L87.5833 80.6379C85.4904 80.7853 83.3877 80.5757 81.3651 80.018L64.5459 75.38L52.2764 71.9966C47.7802 70.7567 42.979 72.7129 40.5756 76.7099C39.0094 79.3147 38.6686 82.5124 39.6774 85.3795Z" fill="#AD8E53"/>
<path d="M55.1669 99.7337L54.9485 98.7578L54.9485 98.7578L55.1669 99.7337ZM78.6023 94.4876L78.8207 95.4634L78.8207 95.4634L78.6023 94.4876ZM90.375 95.7338L89.9571 96.6423L90.375 95.7338ZM110.9 105.176L110.482 106.084L110.9 105.176ZM115.301 70.2773L115.481 71.2611L115.481 71.2611L115.301 70.2773ZM91.6926 74.5794L91.8718 75.5632L91.8718 75.5632L91.6926 74.5794ZM81.5753 73.5837L81.9429 72.6537L81.9429 72.6537L81.5753 73.5837ZM57.95 64.2449L57.5824 65.1749L57.5824 65.1749L57.95 64.2449ZM50.2721 92.1459L50.1765 91.1505L50.1765 91.1505L50.2721 92.1459ZM39.6774 85.3795L38.7341 85.7114L38.7341 85.7114L39.6774 85.3795ZM79.8683 89.3034L79.9639 90.2988L79.9639 90.2988L79.8683 89.3034ZM87.1722 90.0661L86.873 91.0203L86.873 91.0203L87.1722 90.0661ZM116.723 99.3322L116.424 100.286L116.424 100.286L116.723 99.3322ZM126.62 97.4286L127.252 98.2038L127.252 98.2038L126.62 97.4286ZM128.088 82.402L128.863 81.7702L128.863 81.7702L128.088 82.402ZM118.955 78.4276L119.025 79.4251L119.025 79.4251L118.955 78.4276ZM87.5833 80.6379L87.6535 81.6354L87.6535 81.6354L87.5833 80.6379ZM81.3651 80.018L81.0993 80.982L81.0993 80.982L81.3651 80.018ZM64.5459 75.38L64.8118 74.416L64.8118 74.416L64.5459 75.38ZM52.2764 71.9966L52.5422 71.0326L52.5422 71.0326L52.2764 71.9966ZM40.5756 76.7099L41.4326 77.2252L41.4326 77.2252L40.5756 76.7099ZM54.9485 98.7578C43.3017 101.365 32.5162 91.6814 33.7278 79.7885L31.7381 79.5858C30.3901 92.8175 42.3875 103.619 55.3854 100.71L54.9485 98.7578ZM78.3838 93.5117L54.9485 98.7578L55.3854 100.71L78.8207 95.4634L78.3838 93.5117ZM90.7929 94.8253C86.9121 93.0401 82.5524 92.5786 78.3838 93.5117L78.8207 95.4634C82.5618 94.626 86.4743 95.0401 89.9571 96.6423L90.7929 94.8253ZM111.318 104.267L90.7929 94.8253L89.9571 96.6423L110.482 106.084L111.318 104.267ZM135.96 90.1888C134.748 102.091 122.187 109.267 111.318 104.267L110.482 106.084C122.597 111.657 136.598 103.658 137.95 90.3915L135.96 90.1888ZM115.481 71.2611C126.906 69.1792 137.137 78.635 135.96 90.1888L137.95 90.3915C139.262 77.5129 127.858 66.9728 115.122 69.2935L115.481 71.2611ZM91.8718 75.5632L115.481 71.2611L115.122 69.2935L91.5133 73.5956L91.8718 75.5632ZM81.2077 74.5137C84.5946 75.8525 88.2889 76.2161 91.8718 75.5632L91.5133 73.5956C88.2978 74.1815 84.9825 73.8553 81.9429 72.6537L81.2077 74.5137ZM57.5824 65.1749L81.2077 74.5137L81.9429 72.6537L58.3176 63.315L57.5824 65.1749ZM33.7278 79.7885C34.9046 68.2374 46.8011 60.9132 57.5824 65.1749L58.3176 63.315C46.2865 58.5593 33.0475 66.7335 31.7381 79.5858L33.7278 79.7885ZM50.1765 91.1505C45.967 91.5548 42.0243 89.0367 40.6207 85.0476L38.7341 85.7114C40.4428 90.5679 45.2429 93.6335 50.3677 93.1413L50.1765 91.1505ZM79.7727 88.3079L50.1765 91.1505L50.3677 93.1413L79.9639 90.2988L79.7727 88.3079ZM87.4714 89.1119C84.9847 88.3322 82.3668 88.0588 79.7727 88.3079L79.9639 90.2988C82.292 90.0752 84.6413 90.3205 86.873 91.0203L87.4714 89.1119ZM117.022 98.378L87.4714 89.1119L86.873 91.0203L116.424 100.286L117.022 98.378ZM125.989 96.6535C123.479 98.6987 120.111 99.3465 117.022 98.378L116.424 100.286C120.154 101.456 124.222 100.674 127.252 98.2038L125.989 96.6535ZM127.313 83.0338C130.68 87.1653 130.103 93.2997 125.989 96.6535L127.252 98.2038C132.24 94.1384 132.914 86.741 128.863 81.7702L127.313 83.0338ZM119.025 79.4251C122.19 79.2021 125.302 80.5671 127.313 83.0338L128.863 81.7702C126.447 78.8065 122.708 77.1607 118.885 77.4301L119.025 79.4251ZM87.6535 81.6354L119.025 79.4251L118.885 77.4301L87.513 79.6404L87.6535 81.6354ZM81.0993 80.982C83.2312 81.5699 85.4476 81.7908 87.6535 81.6354L87.513 79.6404C85.5332 79.7798 83.5442 79.5815 81.631 79.054L81.0993 80.982ZM64.2801 76.344L81.0993 80.982L81.631 79.054L64.8118 74.416L64.2801 76.344ZM52.0106 72.9606L64.2801 76.344L64.8118 74.416L52.5422 71.0326L52.0106 72.9606ZM41.4326 77.2252C43.6082 73.6071 47.9532 71.8418 52.0106 72.9606L52.5422 71.0326C47.6072 69.6717 42.3499 71.8186 39.7186 76.1946L41.4326 77.2252ZM40.6207 85.0476C39.7121 82.4651 40.0181 79.5778 41.4326 77.2252L39.7186 76.1946C38.0007 79.0517 37.6252 82.5597 38.7341 85.7114L40.6207 85.0476Z" fill="#7E673C" mask="url(#path-1-inside-1_258_19)"/>
<mask id="path-3-inside-2_258_19" fill="white">
<path fill-rule="evenodd" clip-rule="evenodd" d="M32.4634 84.9967C32.4634 97.624 44.8343 106.659 56.8136 102.666L79.5965 95.0719C83.4413 93.7903 87.6004 93.8067 91.435 95.1185L112.811 102.431C124.78 106.526 137.223 97.6311 137.223 84.9819C137.223 72.7025 125.448 63.8524 113.653 67.2668L90.6017 73.9395C87.2827 74.9002 83.761 74.9123 80.4356 73.9743L55.9854 67.0781C44.181 63.7487 32.4634 72.7317 32.4634 84.9967ZM39.9486 89.9553C41.945 94.1976 46.5768 96.5321 51.1745 95.6131L80.3301 89.7855C82.7547 89.3009 85.2517 89.3072 87.6738 89.8041L118.011 96.0274C121.511 96.7455 125.138 95.6571 127.665 93.1305C131.817 88.9788 131.753 82.1843 127.602 78.0326C125.125 75.5556 121.565 74.4052 118.113 75.0042L87.1272 80.3827C85.06 80.7415 82.9469 80.7461 80.8782 80.3962L63.6756 77.4868L51.1263 75.3644C46.5276 74.5866 41.9494 77.0193 39.9635 81.2393C38.6693 83.9895 38.6544 87.2052 39.9486 89.9553Z"/>
</mask>
<path fill-rule="evenodd" clip-rule="evenodd" d="M32.4634 84.9967C32.4634 97.624 44.8343 106.659 56.8136 102.666L79.5965 95.0719C83.4413 93.7903 87.6004 93.8067 91.435 95.1185L112.811 102.431C124.78 106.526 137.223 97.6311 137.223 84.9819C137.223 72.7025 125.448 63.8524 113.653 67.2668L90.6017 73.9395C87.2827 74.9002 83.761 74.9123 80.4356 73.9743L55.9854 67.0781C44.181 63.7487 32.4634 72.7317 32.4634 84.9967ZM39.9486 89.9553C41.945 94.1976 46.5768 96.5321 51.1745 95.6131L80.3301 89.7855C82.7547 89.3009 85.2517 89.3072 87.6738 89.8041L118.011 96.0274C121.511 96.7455 125.138 95.6571 127.665 93.1305C131.817 88.9788 131.753 82.1843 127.602 78.0326C125.125 75.5556 121.565 74.4052 118.113 75.0042L87.1272 80.3827C85.06 80.7415 82.9469 80.7461 80.8782 80.3962L63.6756 77.4868L51.1263 75.3644C46.5276 74.5866 41.9494 77.0193 39.9635 81.2393C38.6693 83.9895 38.6544 87.2052 39.9486 89.9553Z" fill="#AD8E53"/>
<path d="M56.8136 102.666L56.4974 101.718L56.8136 102.666ZM79.5965 95.0719L79.9128 96.0206L79.5965 95.0719ZM91.435 95.1185L91.1113 96.0646L91.1113 96.0646L91.435 95.1185ZM112.811 102.431L112.488 103.378L112.488 103.378L112.811 102.431ZM113.653 67.2668L113.375 66.3062L113.375 66.3062L113.653 67.2668ZM90.6017 73.9395L90.3236 72.9789L90.3236 72.9789L90.6017 73.9395ZM80.4356 73.9743L80.707 73.0119L80.707 73.0119L80.4356 73.9743ZM55.9854 67.0781L55.7139 68.0406L55.7139 68.0406L55.9854 67.0781ZM51.1745 95.6131L50.9785 94.6325L50.9785 94.6325L51.1745 95.6131ZM39.9486 89.9553L39.0438 90.3811L39.0438 90.3811L39.9486 89.9553ZM80.3301 89.7855L80.5261 90.7661L80.5261 90.7661L80.3301 89.7855ZM87.6738 89.8041L87.4728 90.7837L87.4728 90.7837L87.6738 89.8041ZM118.011 96.0274L118.212 95.0478L118.212 95.0478L118.011 96.0274ZM127.665 93.1305L128.372 93.8376L128.372 93.8376L127.665 93.1305ZM127.602 78.0326L126.895 78.7397L126.895 78.7397L127.602 78.0326ZM118.113 75.0042L118.284 75.9895L118.284 75.9895L118.113 75.0042ZM87.1272 80.3827L86.9561 79.3975L86.9561 79.3975L87.1272 80.3827ZM80.8782 80.3962L81.045 79.4102L81.045 79.4102L80.8782 80.3962ZM63.6756 77.4868L63.5088 78.4728L63.5088 78.4728L63.6756 77.4868ZM51.1263 75.3644L50.9596 76.3504L50.9596 76.3504L51.1263 75.3644ZM39.9635 81.2393L40.8683 81.6651L40.8683 81.6651L39.9635 81.2393ZM56.4974 101.718C45.1747 105.492 33.4634 96.9511 33.4634 84.9967H31.4634C31.4634 98.2968 44.4938 107.827 57.1298 103.615L56.4974 101.718ZM79.2803 94.1232L56.4974 101.718L57.1298 103.615L79.9128 96.0206L79.2803 94.1232ZM91.7587 94.1723C87.7169 92.7896 83.3328 92.7723 79.2803 94.1232L79.9128 96.0206C83.5497 94.8083 87.484 94.8237 91.1113 96.0646L91.7587 94.1723ZM113.135 101.485L91.7587 94.1723L91.1113 96.0646L112.488 103.378L113.135 101.485ZM136.223 84.9819C136.223 96.9452 124.454 105.358 113.135 101.485L112.488 103.378C125.105 107.694 138.223 98.3169 138.223 84.9819H136.223ZM113.931 68.2273C125.087 64.9981 136.223 73.3683 136.223 84.9819H138.223C138.223 72.0366 125.81 62.7067 113.375 66.3062L113.931 68.2273ZM90.8797 74.9L113.931 68.2273L113.375 66.3062L90.3236 72.9789L90.8797 74.9ZM80.1641 74.9368C83.6693 75.9254 87.3814 75.9127 90.8797 74.9L90.3236 72.9789C87.1841 73.8877 83.8527 73.8991 80.707 73.0119L80.1641 74.9368ZM55.7139 68.0406L80.1641 74.9368L80.707 73.0119L56.2569 66.1157L55.7139 68.0406ZM33.4634 84.9967C33.4634 73.3857 44.5563 64.8936 55.7139 68.0406L56.2569 66.1157C43.8058 62.6038 31.4634 72.0778 31.4634 84.9967H33.4634ZM50.9785 94.6325C46.8317 95.4613 42.654 93.3558 40.8534 89.5295L39.0438 90.3811C41.2359 95.0394 46.322 97.6028 51.3705 96.5937L50.9785 94.6325ZM80.1341 88.8049L50.9785 94.6325L51.3705 96.5937L80.5261 90.7661L80.1341 88.8049ZM87.8747 88.8245C85.3218 88.3008 82.6897 88.2941 80.1341 88.8049L80.5261 90.7661C82.8196 90.3077 85.1817 90.3137 87.4728 90.7837L87.8747 88.8245ZM118.212 95.0478L87.8747 88.8245L87.4728 90.7837L117.81 97.007L118.212 95.0478ZM126.958 92.4234C124.669 94.7123 121.383 95.6983 118.212 95.0478L117.81 97.007C121.64 97.7926 125.608 96.6019 128.372 93.8376L126.958 92.4234ZM126.895 78.7397C130.664 82.5086 130.711 88.6699 126.958 92.4234L128.372 93.8376C132.922 89.2877 132.843 81.86 128.309 77.3255L126.895 78.7397ZM118.284 75.9895C121.41 75.4469 124.644 76.4894 126.895 78.7397L128.309 77.3255C125.605 74.6218 121.719 73.3634 117.942 74.019L118.284 75.9895ZM87.2982 81.368L118.284 75.9895L117.942 74.019L86.9561 79.3975L87.2982 81.368ZM80.7115 81.3822C82.8919 81.751 85.1193 81.7462 87.2982 81.368L86.9561 79.3975C85.0007 79.7369 83.0018 79.7412 81.045 79.4102L80.7115 81.3822ZM63.5088 78.4728L80.7115 81.3822L81.045 79.4102L63.8423 76.5008L63.5088 78.4728ZM50.9596 76.3504L63.5088 78.4728L63.8423 76.5008L51.2931 74.3784L50.9596 76.3504ZM40.8683 81.6651C42.666 77.8451 46.8097 75.6485 50.9596 76.3504L51.2931 74.3784C46.2455 73.5247 41.2329 76.1934 39.0587 80.8135L40.8683 81.6651ZM40.8534 89.5295C39.6877 87.0524 39.6995 84.1489 40.8683 81.6651L39.0587 80.8135C37.6392 83.83 37.6211 87.358 39.0438 90.3811L40.8534 89.5295Z" fill="#7E673C" mask="url(#path-3-inside-2_258_19)"/>
<mask id="path-5-inside-3_258_19" fill="white">
<path fill-rule="evenodd" clip-rule="evenodd" d="M32.734 90.315C34.0161 102.877 47.2404 110.61 58.7524 105.421L80.6465 95.5525C84.3412 93.8872 88.4806 93.4812 92.4285 94.3969L114.437 99.5016C126.759 102.36 138.235 92.2474 136.951 79.6636C135.704 67.4476 123.091 59.8389 111.704 64.4332L89.4491 73.4119C86.2449 74.7047 82.7426 75.0743 79.3391 74.4788L54.3151 70.1008C42.2337 67.9871 31.4887 78.1135 32.734 90.315ZM40.6843 94.4882C43.1011 98.5059 47.9461 100.358 52.4266 98.977L80.84 90.2192C83.2028 89.4909 85.6876 89.2437 88.1475 89.492L118.96 92.6029C122.515 92.9618 126.013 91.5109 128.27 88.7408C131.979 84.189 131.226 77.436 126.674 73.7273C123.958 71.5146 120.3 70.7316 116.927 71.678L86.6471 80.1749C84.6271 80.7417 82.5254 80.9608 80.4319 80.8228L63.0227 79.6751L50.3228 78.8378C45.6689 78.531 41.3613 81.4159 39.8142 85.8158C38.8059 88.6831 39.1176 91.8837 40.6843 94.4882Z"/>
</mask>
<path fill-rule="evenodd" clip-rule="evenodd" d="M32.734 90.315C34.0161 102.877 47.2404 110.61 58.7524 105.421L80.6465 95.5525C84.3412 93.8872 88.4806 93.4812 92.4285 94.3969L114.437 99.5016C126.759 102.36 138.235 92.2474 136.951 79.6636C135.704 67.4476 123.091 59.8389 111.704 64.4332L89.4491 73.4119C86.2449 74.7047 82.7426 75.0743 79.3391 74.4788L54.3151 70.1008C42.2337 67.9871 31.4887 78.1135 32.734 90.315ZM40.6843 94.4882C43.1011 98.5059 47.9461 100.358 52.4266 98.977L80.84 90.2192C83.2028 89.4909 85.6876 89.2437 88.1475 89.492L118.96 92.6029C122.515 92.9618 126.013 91.5109 128.27 88.7408C131.979 84.189 131.226 77.436 126.674 73.7273C123.958 71.5146 120.3 70.7316 116.927 71.678L86.6471 80.1749C84.6271 80.7417 82.5254 80.9608 80.4319 80.8228L63.0227 79.6751L50.3228 78.8378C45.6689 78.531 41.3613 81.4159 39.8142 85.8158C38.8059 88.6831 39.1176 91.8837 40.6843 94.4882Z" fill="#AD8E53"/>
<path d="M58.7524 105.421L59.1633 106.333L59.1633 106.333L58.7524 105.421ZM32.734 90.315L33.7288 90.2135L32.734 90.315ZM80.6465 95.5525L80.2356 94.6409L80.6465 95.5525ZM92.4285 94.3969L92.2026 95.371L92.2026 95.371L92.4285 94.3969ZM114.437 99.5016L114.663 98.5275L114.437 99.5016ZM111.704 64.4332L111.329 63.5059L111.329 63.5059L111.704 64.4332ZM89.4491 73.4119L89.075 72.4846L89.075 72.4846L89.4491 73.4119ZM79.3391 74.4788L79.1668 75.4639L79.1668 75.4639L79.3391 74.4788ZM54.3151 70.1008L54.1427 71.0859L54.1427 71.0859L54.3151 70.1008ZM52.4266 98.977L52.7212 99.9326L52.4266 98.977ZM40.6843 94.4882L39.8274 95.0037L39.8274 95.0037L40.6843 94.4882ZM80.84 90.2192L80.5454 89.2636L80.5454 89.2636L80.84 90.2192ZM88.1475 89.492L88.248 88.4971L88.248 88.4971L88.1475 89.492ZM118.96 92.6029L119.061 91.608L119.061 91.608L118.96 92.6029ZM128.27 88.7408L129.045 89.3724L129.045 89.3724L128.27 88.7408ZM126.674 73.7273L126.042 74.5025L126.042 74.5025L126.674 73.7273ZM116.927 71.678L117.197 72.6408L117.197 72.6408L116.927 71.678ZM86.6471 80.1749L86.9173 81.1377L86.9173 81.1377L86.6471 80.1749ZM80.4319 80.8228L80.3661 81.8206L80.3661 81.8206L80.4319 80.8228ZM63.0227 79.6751L63.0885 78.6772L63.0885 78.6772L63.0227 79.6751ZM50.3228 78.8378L50.257 79.8356L50.257 79.8356L50.3228 78.8378ZM39.8142 85.8158L38.8708 85.4841L38.8708 85.4841L39.8142 85.8158ZM58.3415 104.509C47.4606 109.414 34.9426 102.106 33.7288 90.2135L31.7391 90.4166C33.0896 103.648 47.0202 111.806 59.1633 106.333L58.3415 104.509ZM80.2356 94.6409L58.3415 104.509L59.1633 106.333L81.0574 96.4642L80.2356 94.6409ZM92.6544 93.4228C88.4932 92.4576 84.13 92.8855 80.2356 94.6409L81.0574 96.4642C84.5524 94.8889 88.4681 94.5048 92.2026 95.371L92.6544 93.4228ZM114.663 98.5275L92.6544 93.4228L92.2026 95.371L114.211 100.476L114.663 98.5275ZM135.956 79.7651C137.171 91.6666 126.317 101.231 114.663 98.5275L114.211 100.476C127.201 103.489 139.3 92.8282 137.946 79.5621L135.956 79.7651ZM112.078 65.3606C122.848 61.0154 134.777 68.2116 135.956 79.7651L137.946 79.5621C136.631 66.6837 123.334 58.6624 111.329 63.5059L112.078 65.3606ZM89.8233 74.3393L112.078 65.3606L111.329 63.5059L89.075 72.4846L89.8233 74.3393ZM79.1668 75.4639C82.7542 76.0915 86.4458 75.702 89.8233 74.3393L89.075 72.4846C86.0439 73.7075 82.731 74.0571 79.5114 73.4938L79.1668 75.4639ZM54.1427 71.0859L79.1668 75.4639L79.5114 73.4938L54.4874 69.1158L54.1427 71.0859ZM33.7288 90.2135C32.5499 78.6625 42.7232 69.088 54.1427 71.0859L54.4874 69.1158C41.7441 66.8863 30.4274 77.5644 31.7391 90.4166L33.7288 90.2135ZM52.1321 98.0213C48.0909 99.2669 43.7211 97.5965 41.5412 93.9728L39.8274 95.0037C42.4812 99.4154 47.8013 101.449 52.7212 99.9326L52.1321 98.0213ZM80.5454 89.2636L52.1321 98.0213L52.7212 99.9326L81.1345 91.1748L80.5454 89.2636ZM88.248 88.4971C85.655 88.2353 83.0359 88.4959 80.5454 89.2636L81.1345 91.1748C83.3696 90.4859 85.7201 90.252 88.0471 90.487L88.248 88.4971ZM119.061 91.608L88.248 88.4971L88.0471 90.487L118.86 93.5979L119.061 91.608ZM127.495 88.1091C125.45 90.6186 122.281 91.9331 119.061 91.608L118.86 93.5979C122.749 93.9906 126.576 92.4031 129.045 89.3724L127.495 88.1091ZM126.042 74.5025C130.174 77.8693 130.848 83.9939 127.495 88.1091L129.045 89.3724C133.11 84.3841 132.277 77.0027 127.306 72.952L126.042 74.5025ZM117.197 72.6408C120.252 71.7836 123.575 72.4924 126.042 74.5025L127.306 72.952C124.341 70.5369 120.347 69.6796 116.657 70.7152L117.197 72.6408ZM86.9173 81.1377L117.197 72.6408L116.657 70.7152L86.377 79.2121L86.9173 81.1377ZM80.3661 81.8206C82.5728 81.9661 84.7881 81.7352 86.9173 81.1377L86.377 79.2121C84.4661 79.7483 82.478 79.9555 80.4977 79.825L80.3661 81.8206ZM62.9569 80.6729L80.3661 81.8206L80.4977 79.825L63.0885 78.6772L62.9569 80.6729ZM50.257 79.8356L62.9569 80.6729L63.0885 78.6772L50.3886 77.8399L50.257 79.8356ZM40.7575 86.1475C42.158 82.1647 46.0574 79.5587 50.257 79.8356L50.3886 77.8399C45.2804 77.5032 40.5646 80.6671 38.8708 85.4841L40.7575 86.1475ZM41.5412 93.9728C40.13 91.6268 39.8469 88.7371 40.7575 86.1475L38.8708 85.4841C37.7649 88.6291 38.1052 92.1406 39.8274 95.0037L41.5412 93.9728Z" fill="#7E673C" mask="url(#path-5-inside-3_258_19)"/>
<rect x="79.2209" y="98.0375" width="26.2104" height="4.44207" rx="2.22104" transform="rotate(-90 79.2209 98.0375)" fill="#AD8E53" stroke="#7E673C"/>
<rect x="87.672" y="97.943" width="26.2104" height="4.44207" rx="2.22104" transform="rotate(-97.1198 87.672 97.943)" fill="#AD8E53" stroke="#7E673C"/>
<rect x="82.7886" y="97.7387" width="26.2104" height="4.44207" rx="2.22104" transform="rotate(-87.7911 82.7886 97.7387)" fill="#AD8E53" stroke="#7E673C"/>
</svg>
