<svg width="170" height="170" viewBox="0 0 170 170" fill="none" xmlns="http://www.w3.org/2000/svg">
<path d="M54 87L98.286 85.7347C112.367 85.3324 124 96.6377 124 110.724V113H51L54 87Z" fill="#4B4334"/>
<path d="M51 47L88.7541 47.406C94.4813 47.4675 100.089 49.0532 105 52L98 63V113H51L52.5 91.5L51 47Z" fill="#4B4334"/>
<circle cx="93.5" cy="51.5" r="1.5" fill="#211E17"/>
<path d="M51 113H124.5C125.881 113 127 114.119 127 115.5C127 116.881 125.881 118 124.5 118H51V113Z" fill="#A48A5B"/>
<rect x="95.3252" y="71" width="7" height="2" rx="1" transform="rotate(41.4975 95.3252 71)" fill="#AB9D84"/>
<path d="M93.7783 51.2118C94.3181 51.3288 94.6608 51.8613 94.5437 52.401L88.1664 81.8184C88.0494 82.3582 87.517 82.7008 86.9772 82.5838C86.4375 82.4668 86.0948 81.9344 86.2118 81.3947L92.5892 51.9773C92.7062 51.4375 93.2386 51.0948 93.7783 51.2118Z" fill="#AB9D84"/>
<path d="M87.7581 78.982C88.2978 79.0991 88.6405 79.6315 88.5235 80.1712L88.1664 81.8184C88.0494 82.3581 87.517 82.7008 86.9772 82.5838C86.4375 82.4668 86.0948 81.9344 86.2118 81.3947L86.5689 79.7475C86.6859 79.2077 87.2183 78.865 87.7581 78.982Z" fill="#1B1812"/>
<rect x="95.3252" y="57" width="7" height="2" rx="1" transform="rotate(41.4975 95.3252 57)" fill="#AB9D84"/>
<rect x="95.3252" y="64" width="7" height="2" rx="1" transform="rotate(41.4975 95.3252 64)" fill="#AB9D84"/>
</svg>
