<svg width="76" height="71" viewBox="0 0 76 71" fill="none" xmlns="http://www.w3.org/2000/svg">
<path d="M3 40L47.286 38.7347C61.3671 38.3324 73 49.6377 73 63.7245V66H0L3 40Z" fill="#4B4334"/>
<path d="M0 0L37.7541 0.405958C43.4813 0.46754 49.0887 2.05322 54 5V5L47 16V66H0L1.5 44.5L0 0Z" fill="#4B4334"/>
<circle cx="42.5" cy="4.5" r="1.5" fill="#211E17"/>
<path d="M0 66H73.5C74.8807 66 76 67.1193 76 68.5V68.5C76 69.8807 74.8807 71 73.5 71H0V66Z" fill="#A48A5B"/>
<rect x="44.3252" y="24" width="7" height="2" rx="1" transform="rotate(41.4975 44.3252 24)" fill="#AB9D84"/>
<path d="M42.7784 4.21184C43.3181 4.32885 43.6608 4.86126 43.5438 5.401L37.1664 34.8184C37.0494 35.3582 36.517 35.7008 35.9773 35.5838V35.5838C35.4375 35.4668 35.0948 34.9344 35.2118 34.3947L41.5892 4.97727C41.7062 4.43752 42.2386 4.09483 42.7784 4.21184V4.21184Z" fill="#AB9D84"/>
<path d="M36.7581 31.982C37.2979 32.0991 37.6406 32.6315 37.5235 33.1712L37.1665 34.8184C37.0494 35.3581 36.517 35.7008 35.9773 35.5838V35.5838C35.4375 35.4668 35.0948 34.9344 35.2119 34.3947L35.5689 32.7475C35.686 32.2077 36.2184 31.865 36.7581 31.982V31.982Z" fill="#1B1812"/>
<rect x="44.3252" y="10" width="7" height="2" rx="1" transform="rotate(41.4975 44.3252 10)" fill="#AB9D84"/>
<rect x="44.3252" y="17" width="7" height="2" rx="1" transform="rotate(41.4975 44.3252 17)" fill="#AB9D84"/>
</svg>
