<svg width="170" height="170" viewBox="0 0 170 170" fill="none" xmlns="http://www.w3.org/2000/svg">
<path d="M70 75.6041C70 74.2869 70.6485 73.0542 71.7339 72.308L76.2661 69.192C77.3515 68.4458 78 67.2131 78 65.8959V53C78 52.4477 77.5523 52 77 52C76.4477 52 76 51.5523 76 51V50C76 48.8954 76.8954 48 78 48H91C92.1046 48 93 48.8954 93 50V51C93 51.5523 92.5523 52 92 52C91.4477 52 91 52.4477 91 53V65.8959C91 67.2131 91.6485 68.4458 92.7339 69.192L97.2661 72.308C98.3515 73.0542 99 74.2869 99 75.6041V111.5C99 113.709 97.2091 115.5 95 115.5H74C71.7909 115.5 70 113.709 70 111.5V75.6041Z" fill="url(#paint0_linear_114_43)"/>
<defs>
<linearGradient id="paint0_linear_114_43" x1="19.5" y1="30" x2="151.5" y2="146.5" gradientUnits="userSpaceOnUse">
<stop offset="0.438936" stop-color="#4A7D16"/>
<stop offset="0.679101" stop-color="#424E36"/>
<stop offset="0.909615" stop-color="#252A20"/>
</linearGradient>
</defs>
</svg>
