<svg width="29" height="68" viewBox="0 0 29 68" fill="none" xmlns="http://www.w3.org/2000/svg">
<path d="M0 27.6041C0 26.2869 0.648468 25.0542 1.73388 24.308L6.26612 21.192C7.35153 20.4458 8 19.2131 8 17.8959V5C8 4.44772 7.55228 4 7 4V4C6.44772 4 6 3.55228 6 3V2C6 0.895431 6.89543 0 8 0H21C22.1046 0 23 0.895431 23 2V3C23 3.55228 22.5523 4 22 4V4C21.4477 4 21 4.44772 21 5V17.8959C21 19.2131 21.6485 20.4458 22.7339 21.192L27.2661 24.308C28.3515 25.0542 29 26.2869 29 27.6041V63.5C29 65.7091 27.2091 67.5 25 67.5H4C1.79086 67.5 0 65.7091 0 63.5V27.6041Z" fill="#7E916B"/>
</svg>
