<svg width="169" height="94" viewBox="0 0 169 94" fill="none" xmlns="http://www.w3.org/2000/svg">
<path d="M48.5819 43.2401C50.6886 44.1861 50.9813 47.058 49.1086 48.4095L21.7211 68.1749C19.8484 69.5264 17.215 68.3439 16.9809 66.0463L13.5573 32.4453C13.3232 30.1478 15.664 28.4585 17.7708 29.4045L48.5819 43.2401Z" fill="url(#paint0_linear_50_21)"/>
<path d="M92 54H158V54C158 59.5228 153.523 64 148 64H92V54Z" fill="url(#paint1_linear_50_21)"/>
<path d="M63.1707 35.6707C62.6387 35.1387 62.8625 34.2319 63.581 34.0086L98.0552 23.2936C98.5786 23.131 99.1355 23.4199 99.3037 23.9416L103.578 37.193C103.787 37.8387 103.305 38.5 102.627 38.5H66.4142C66.149 38.5 65.8946 38.3946 65.7071 38.2071L63.1707 35.6707Z" fill="#8D5A51"/>
<path d="M61.978 59.468C61.3658 59.9628 61.539 60.9383 62.2841 61.1922L96.0615 72.7027C96.5588 72.8722 97.1024 72.6279 97.306 72.1435L102.153 60.6064C102.421 59.9689 101.977 59.2584 101.286 59.2206L65.1443 57.2399C64.897 57.2264 64.6535 57.3051 64.4609 57.4608L61.978 59.468Z" fill="#8D5A51"/>
<path d="M42 46.016C42 41.4994 45.4905 37.7507 49.9956 37.4289L133.552 31.4606C144.601 30.6713 154 39.4225 154 50.5V50.5L135.5 61L105.386 64.039C89.3423 65.6581 73.1409 63.578 58.0265 57.9586L47.6089 54.0854C44.2369 52.8317 42 49.6135 42 46.016V46.016Z" fill="#6F453E"/>
<path d="M123.037 48.3102C125.317 48.9649 125.971 51.8816 124.189 53.4473L108.726 67.0344C107.015 68.5383 104.318 67.6605 103.819 65.4374L99.4971 46.1686C98.9985 43.9454 101.063 41.9996 103.252 42.6285L123.037 48.3102Z" fill="url(#paint2_linear_50_21)"/>
<rect x="137" y="38" width="7" height="7" rx="3.5" fill="#25130F"/>
<defs>
<linearGradient id="paint0_linear_50_21" x1="51" y1="45.5" x2="-23" y2="53.5" gradientUnits="userSpaceOnUse">
<stop stop-color="#412824"/>
<stop offset="1" stop-color="#D48577"/>
</linearGradient>
<linearGradient id="paint1_linear_50_21" x1="117.5" y1="52" x2="158" y2="59" gradientUnits="userSpaceOnUse">
<stop stop-color="#492D28"/>
<stop offset="1" stop-color="#6E453E"/>
</linearGradient>
<linearGradient id="paint2_linear_50_21" x1="125.5" y1="69" x2="86.9674" y2="20.5259" gradientUnits="userSpaceOnUse">
<stop stop-color="#412824"/>
<stop offset="1" stop-color="#D48577"/>
</linearGradient>
</defs>
</svg>
