<svg width="170" height="170" viewBox="0 0 170 170" fill="none" xmlns="http://www.w3.org/2000/svg">
<path d="M48.8628 81.2372C50.9788 82.1818 51.2742 85.0643 49.3934 86.4137L21.8188 106.197C19.9461 107.541 17.318 106.356 17.0829 104.062L13.636 70.4301C13.4009 68.1361 15.7345 66.4485 17.8413 67.389L48.8628 81.2372Z" fill="url(#paint0_linear_114_5)"/>
<path d="M92.5444 92H158.935V92C158.935 97.5228 154.458 102 148.935 102H92.5444V92Z" fill="url(#paint1_linear_114_5)"/>
<path d="M63.5471 73.6733C63.0122 73.1415 63.2362 72.2314 63.9569 72.0087L98.6438 61.2911C99.1662 61.1297 99.7214 61.4178 99.8901 61.9379L104.191 75.1914C104.4 75.8374 103.919 76.5 103.24 76.5H66.803C66.5388 76.5 66.2854 76.3955 66.098 76.2092L63.5471 73.6733Z" fill="#8D5A51"/>
<path d="M62.3476 97.4657C61.7322 97.9602 61.905 98.9389 62.6523 99.1921L96.6377 110.705C97.134 110.873 97.6762 110.63 97.8803 110.147L102.757 98.6081C103.027 97.9703 102.582 97.2585 101.891 97.2209L65.5258 95.2397C65.2795 95.2263 65.0369 95.3044 64.8446 95.4589L62.3476 97.4657Z" fill="#8D5A51"/>
<path d="M42.2485 84.0104C42.2485 79.4975 45.7372 75.7523 50.2388 75.4326L134.463 69.452C145.514 68.6673 154.911 77.421 154.911 88.5V88.5L136.302 99L105.915 102.048C89.8364 103.662 73.6012 101.588 58.4436 95.9858L47.8666 92.0765C44.4904 90.8286 42.2485 87.6099 42.2485 84.0104V84.0104Z" fill="#6F453E"/>
<path d="M123.76 86.3088C126.049 86.9623 126.709 89.8878 124.92 91.4507L109.343 105.058C107.631 106.553 104.937 105.671 104.436 103.451L100.083 84.1546C99.582 81.9349 101.639 79.9935 103.83 80.6189L123.76 86.3088Z" fill="url(#paint2_linear_114_5)"/>
<rect x="137.811" y="76" width="7.04142" height="7" rx="3.5" fill="#25130F"/>
<defs>
<linearGradient id="paint0_linear_114_5" x1="51.3018" y1="83.5" x2="-23.1259" y2="91.5938" gradientUnits="userSpaceOnUse">
<stop stop-color="#412824"/>
<stop offset="1" stop-color="#D48577"/>
</linearGradient>
<linearGradient id="paint1_linear_114_5" x1="118.195" y1="90" x2="158.921" y2="97.0806" gradientUnits="userSpaceOnUse">
<stop stop-color="#492D28"/>
<stop offset="1" stop-color="#6E453E"/>
</linearGradient>
<linearGradient id="paint2_linear_114_5" x1="126.243" y1="107" x2="87.762" y2="58.3047" gradientUnits="userSpaceOnUse">
<stop stop-color="#412824"/>
<stop offset="1" stop-color="#D48577"/>
</linearGradient>
</defs>
</svg>
