<svg width="161" height="131" viewBox="0 0 161 131" fill="none" xmlns="http://www.w3.org/2000/svg">
<rect x="64.191" y="37" width="12" height="93" transform="rotate(5.67167 64.191 37)" fill="#543E25"/>
<path d="M0 34L3.84026 38.7563L2.5 39L30 34H0Z" fill="#634A2E"/>
<path d="M1 45H123L161 22L123 44H1.25L1 45Z" fill="#634A2E"/>
<path d="M0 20.5L4.5 24.197L2.5 24.5L19 22L0 20.5Z" fill="#634A2E"/>
<path fill-rule="evenodd" clip-rule="evenodd" d="M1 0H123L161 22L123 44H1.25L2.5 39L30 34H0L1 27.5L2.5 24.5L19 22L0 20.5L1 16L15.5 14L0 7.5L1 0Z" fill="#725431"/>
<path d="M0 7.5L4 15.5862L1 16L15.5 14L0 7.5Z" fill="#634A2E"/>
</svg>
