<svg width="60" height="60" viewBox="0 0 60 60" fill="none" xmlns="http://www.w3.org/2000/svg">
<rect width="60" height="60" rx="6" fill="#D9D9D9"/>
<rect x="2" y="2" width="56" height="56" rx="6" fill="#0F0F0F"/>
<path d="M37.9248 39.1211C36.3428 39.9414 34.375 40.3516 32.0215 40.3516C28.9746 40.3516 26.5332 39.3896 24.6973 37.4658C22.8613 35.542 21.9434 33.0176 21.9434 29.8926C21.9434 26.5332 22.9736 23.8184 25.0342 21.748C27.1045 19.6777 29.7168 18.6426 32.8711 18.6426C34.9023 18.6426 36.5869 18.9307 37.9248 19.5068V22.9639C36.5088 22.124 34.9463 21.7041 33.2373 21.7041C30.9619 21.7041 29.1162 22.4316 27.7002 23.8867C26.2939 25.3418 25.5908 27.2852 25.5908 29.7168C25.5908 32.0312 26.25 33.877 27.5684 35.2539C28.8867 36.6211 30.6201 37.3047 32.7686 37.3047C34.751 37.3047 36.4697 36.8359 37.9248 35.8984V39.1211Z" fill="#D9D9D9"/>
</svg>
