<svg width="122" height="117" viewBox="0 0 122 117" fill="none" xmlns="http://www.w3.org/2000/svg">
<path d="M58.6224 4.40779C59.3707 2.10452 62.6293 2.10451 63.3776 4.4078L74.3383 38.1413C75.3424 41.2315 78.2221 43.3237 81.4713 43.3237H116.941C119.363 43.3237 120.37 46.4228 118.41 47.8463L89.7148 68.6947C87.0861 70.6046 85.9862 73.9898 86.9903 77.08L97.951 110.814C98.6993 113.117 96.0631 115.032 94.1039 113.609L65.4084 92.7602C62.7797 90.8503 59.2203 90.8503 56.5916 92.7602L27.8961 113.609C25.9369 115.032 23.3006 113.117 24.049 110.814L35.0097 77.08C36.0138 73.9898 34.9138 70.6046 32.2852 68.6947L3.58971 47.8463C1.63044 46.4228 2.63736 43.3237 5.05918 43.3237H40.5287C43.7779 43.3237 46.6576 41.2315 47.6617 38.1414L58.6224 4.40779Z" fill="#FCEE58" stroke="#AAA13B" stroke-width="5"/>
</svg>
