<svg width="170" height="170" viewBox="0 0 170 170" fill="none" xmlns="http://www.w3.org/2000/svg">
<path d="M54 87L98.286 85.7347C112.367 85.3324 124 96.6377 124 110.724V113H51L54 87Z" fill="#AA8E33"/>
<path d="M51 47L88.7541 47.406C94.4813 47.4675 100.089 49.0532 105 52V52L98 63V113H51L52.5 91.5L51 47Z" fill="#AA8E33"/>
<path d="M51 113H124.5C125.881 113 127 114.119 127 115.5V115.5C127 116.881 125.881 118 124.5 118H51V113Z" fill="#AA8E33"/>
<rect x="95.3252" y="71" width="7" height="2" rx="1" transform="rotate(41.4975 95.3252 71)" fill="#AA8E33"/>
<rect x="95.3252" y="57" width="7" height="2" rx="1" transform="rotate(41.4975 95.3252 57)" fill="#AA8E33"/>
<rect x="95.3252" y="64" width="7" height="2" rx="1" transform="rotate(41.4975 95.3252 64)" fill="#AA8E33"/>
</svg>
