<svg width="170" height="170" viewBox="0 0 170 170" fill="none" xmlns="http://www.w3.org/2000/svg">
<path fill-rule="evenodd" clip-rule="evenodd" d="M79.555 84.8699L79.4129 88.3979C81.0635 87.7545 82.8709 87.4335 84.7542 87.5093C86.6375 87.5852 88.4132 88.0505 90.0067 88.8245L90.1488 85.2966C88.4982 85.94 86.6909 86.261 84.8076 86.1851C82.9242 86.1093 81.1486 85.644 79.555 84.8699ZM94.2514 83.5842L93.735 84.2238C92.3498 85.9397 92.2523 88.3605 93.4951 90.1822L93.9586 90.8617C95.8242 92.6032 98.7289 92.6629 100.666 90.9599L100.998 90.5654C102.467 88.8204 102.568 86.3029 101.245 84.4454L100.946 84.0259C99.1516 82.1723 96.2512 81.9981 94.2514 83.5842ZM75.3103 90.1102C73.3771 91.6437 70.6022 91.5321 68.7984 89.8484L68.3348 89.1689C67.0921 87.3472 67.1896 84.9264 68.5748 83.2105L69.0912 82.5709C71.0247 81.0373 73.8001 81.1493 75.6038 82.8338L76.0666 83.5122C77.3093 85.3339 77.2119 87.7547 75.8266 89.4706L75.3103 90.1102ZM45.8184 99.2049C46.0573 93.2756 50.1564 88.4134 55.5968 86.9423L55.6989 84.4057C50.3944 82.5019 46.6995 77.3257 46.9383 71.3963C47.2329 64.0829 53.4004 58.3929 60.7139 58.6875C66.5793 58.9237 71.4004 62.9375 72.9277 68.2903C74.8805 63.0776 80.0088 59.4645 85.8743 59.7007C91.7395 59.937 96.5605 63.9504 98.0879 69.303C100.041 64.0907 105.169 60.478 111.034 60.7142C118.348 61.0088 124.038 67.1763 123.743 74.4898C123.504 80.4191 119.405 85.2813 113.965 86.7524L113.862 89.289C119.167 91.1928 122.862 96.3689 122.623 102.298C122.329 109.612 116.161 115.302 108.848 115.007C102.982 114.771 98.1613 110.757 96.6339 105.405C94.681 110.617 89.5527 114.23 83.6875 113.994C77.8222 113.758 73.0011 109.744 71.4738 104.391C69.5209 109.604 64.3926 113.217 58.5273 112.98C51.2138 112.686 45.5239 106.518 45.8184 99.2049ZM112.552 88.8943L112.627 87.0404C112.056 87.1325 111.473 87.188 110.882 87.2044C111.023 87.6559 111.003 88.1518 110.826 88.5905C111.414 88.6545 111.99 88.7566 112.552 88.8943ZM59.1036 86.4852C58.3661 86.4823 57.6415 86.5402 56.9347 86.6543L57.0094 84.8003C57.7047 84.9709 58.4223 85.0868 59.1576 85.1433C58.9911 85.5693 58.9719 86.0472 59.1036 86.4852ZM59.7539 82.5234C65.6047 82.7591 70.5387 78.2071 70.7744 72.3563C71.01 66.5056 66.4581 61.5715 60.6073 61.3359C54.7565 61.1002 49.8225 65.6522 49.5869 71.503C49.3512 77.3537 53.9032 82.2878 59.7539 82.5234ZM119.975 102.192C119.739 108.042 114.805 112.594 108.954 112.359C103.103 112.123 98.5515 107.189 98.7871 101.338C99.0228 95.4876 103.957 90.9356 109.808 91.1713C115.658 91.4069 120.21 96.3409 119.975 102.192ZM95.9344 73.3697C95.6988 79.2205 90.7648 83.7725 84.914 83.5368C79.0632 83.3012 74.5113 78.3671 74.7469 72.5164C74.9826 66.6656 79.9166 62.1136 85.7673 62.3493C91.6181 62.5849 96.1701 67.519 95.9344 73.3697ZM121.095 74.383C120.859 80.2338 115.925 84.7858 110.074 84.5501C104.224 84.3145 99.6716 79.3805 99.9072 73.5297C100.143 67.6789 105.077 63.127 110.928 63.3626C116.778 63.5983 121.33 68.5323 121.095 74.383ZM94.8145 101.178C94.5788 107.029 89.6448 111.581 83.794 111.345C77.9433 111.11 73.3913 106.176 73.627 100.325C73.8626 94.4741 78.7966 89.9222 84.6474 90.1578C90.4982 90.3935 95.0501 95.3275 94.8145 101.178ZM58.6338 110.332C64.4846 110.568 69.4186 106.016 69.6542 100.165C69.8899 94.3142 65.3379 89.3802 59.4872 89.1445C53.6364 88.9089 48.7024 93.4608 48.4667 99.3116C48.2311 105.162 52.783 110.096 58.6338 110.332Z" fill="#AA8E33"/>
</svg>
