<svg width="60" height="60" viewBox="0 0 60 60" fill="none" xmlns="http://www.w3.org/2000/svg">
<rect width="60" height="60" rx="30" fill="#D9D9D9"/>
<rect x="2" y="2" width="56" height="56" rx="28" fill="#ED4337"/>
<path d="M23.5254 41V19.9941H30.1904C32.2217 19.9941 33.8281 20.4385 35.0098 21.3271C36.2012 22.2158 36.7969 23.373 36.7969 24.7988C36.7969 25.9902 36.46 27.0254 35.7861 27.9043C35.1123 28.7832 34.1797 29.4082 32.9883 29.7793V29.8379C34.4336 30.0039 35.5859 30.541 36.4453 31.4492C37.3145 32.3477 37.749 33.5195 37.749 34.9648C37.749 36.7617 37.041 38.2168 35.625 39.3301C34.209 40.4434 32.4219 41 30.2637 41H23.5254ZM26.9971 22.792V28.7686H29.2529C30.4639 28.7686 31.4111 28.4854 32.0947 27.9189C32.7881 27.3428 33.1348 26.5322 33.1348 25.4873C33.1348 23.6904 31.9336 22.792 29.5312 22.792H26.9971ZM26.9971 31.5664V38.2168H29.9707C31.2695 38.2168 32.2705 37.9189 32.9736 37.3232C33.6865 36.7178 34.043 35.8877 34.043 34.833C34.043 32.6553 32.5342 31.5664 29.5166 31.5664H26.9971Z" fill="#D9D9D9"/>
</svg>
