<svg width="68" height="78" viewBox="0 0 68 78" fill="none" xmlns="http://www.w3.org/2000/svg">
<path fill-rule="evenodd" clip-rule="evenodd" d="M33.6624 1.98481C31.2109 1.98481 29.3362 4.17 29.709 6.59304L31 14.9848H38L39.291 6.59304C39.6638 4.17001 37.7891 1.98481 35.3376 1.98481H33.6624ZM33.3027 3.98481C32.0868 3.98481 31.1522 5.06088 31.3224 6.26486L32.2727 12.9848H36.7273L37.6776 6.26485C37.8478 5.06087 36.9132 3.98481 35.6973 3.98481H33.3027Z" fill="#393939"/>
<path d="M1.09599 51.0727C1.0444 50.488 1.50514 49.9848 2.09212 49.9848H8C8.55228 49.9848 9 50.4325 9 50.9848V65.9848C9 66.5371 8.55228 66.9848 8 66.9848H3.41565C2.89743 66.9848 2.46507 66.5889 2.41952 66.0727L1.09599 51.0727Z" fill="#9C4F56"/>
<path d="M0 50.9848C0 50.4325 0.447715 49.9848 1 49.9848H8C8.55229 49.9848 9 50.4325 9 50.9848V53.9848C9 54.5371 8.55229 54.9848 8 54.9848H1C0.447715 54.9848 0 54.5371 0 53.9848V50.9848Z" fill="#783A40"/>
<path d="M66.904 51.0727C66.9556 50.488 66.4949 49.9848 65.9079 49.9848H60C59.4477 49.9848 59 50.4325 59 50.9848V65.9848C59 66.5371 59.4477 66.9848 60 66.9848H64.5844C65.1026 66.9848 65.5349 66.5889 65.5805 66.0727L66.904 51.0727Z" fill="#9C4F56"/>
<path d="M68 50.9848C68 50.4325 67.5523 49.9848 67 49.9848H60C59.4477 49.9848 59 50.4325 59 50.9848V53.9848C59 54.5371 59.4477 54.9848 60 54.9848H67C67.5523 54.9848 68 54.5371 68 53.9848V50.9848Z" fill="#783A40"/>
<path d="M13.1005 5.46392C12.9569 4.99407 13.1758 4.48947 13.6171 4.27342L20.7945 0.759332C21.3794 0.47298 22.0776 0.813131 22.2126 1.45019L25.4188 16.5833C25.5263 17.0903 25.2285 17.5953 24.7329 17.7469L18.4855 19.6569C17.9573 19.8184 17.3983 19.5211 17.2368 18.993L13.1005 5.46392Z" fill="#393939"/>
<path d="M56.04 5.26867C56.1837 4.79882 55.9647 4.29421 55.5235 4.07817L48.346 0.56408C47.7612 0.277729 47.063 0.61788 46.928 1.25494L43.7217 16.388C43.6143 16.895 43.912 17.4001 44.4076 17.5516L50.6551 19.4617C51.1833 19.6231 51.7423 19.3259 51.9038 18.7977L56.04 5.26867Z" fill="#393939"/>
<path d="M33 10.4848H36C50.0833 10.4848 61.5 21.9016 61.5 35.9848V63.9848C61.5 71.4407 55.4558 77.4848 48 77.4848H21C13.5442 77.4848 7.5 71.4407 7.5 63.9848V35.9848C7.5 21.9016 18.9167 10.4848 33 10.4848Z" fill="#9C4F56" stroke="#783A40"/>
<rect x="13" y="37.9848" width="43" height="36" rx="8" fill="#783A40"/>
<path d="M19.8706 21.1025C20.5658 19.799 21.9228 18.9848 23.4 18.9848H45.6C47.0772 18.9848 48.4342 19.799 49.1294 21.1025L52.8627 28.1025C54.2838 30.7669 52.353 33.9848 49.3333 33.9848H19.6667C16.647 33.9848 14.7162 30.7669 16.1373 28.1025L19.8706 21.1025Z" fill="#783A40"/>
</svg>
