<svg width="166" height="34" viewBox="0 0 166 34" fill="none" xmlns="http://www.w3.org/2000/svg">
<g filter="url(#filter0_d_37_4)">
<mask id="path-1-inside-1_37_4" fill="white">
<path d="M4 0H162V26H4V0Z"/>
</mask>
<path d="M4 0H162V26H4V0Z" fill="#CF4245"/>
<path d="M4 0V-2H2V0H4ZM162 0H164V-2H162V0ZM162 26V28H164V26H162ZM4 26H2V28H4V26ZM4 2H162V-2H4V2ZM160 0V26H164V0H160ZM162 24H4V28H162V24ZM6 26V0H2V26H6Z" fill="black" mask="url(#path-1-inside-1_37_4)"/>
<mask id="path-3-inside-2_37_4" fill="white">
<path d="M67 0H99V26H67V0Z"/>
</mask>
<path d="M67 0H99V26H67V0Z" fill="#5CC980"/>
<path d="M67 2H99V-2H67V2ZM99 24H67V28H99V24Z" fill="black" mask="url(#path-3-inside-2_37_4)"/>
</g>
<defs>
<filter id="filter0_d_37_4" x="0" y="0" width="166" height="34" filterUnits="userSpaceOnUse" color-interpolation-filters="sRGB">
<feFlood flood-opacity="0" result="BackgroundImageFix"/>
<feColorMatrix in="SourceAlpha" type="matrix" values="0 0 0 0 0 0 0 0 0 0 0 0 0 0 0 0 0 0 127 0" result="hardAlpha"/>
<feOffset dy="4"/>
<feGaussianBlur stdDeviation="2"/>
<feComposite in2="hardAlpha" operator="out"/>
<feColorMatrix type="matrix" values="0 0 0 0 0 0 0 0 0 0 0 0 0 0 0 0 0 0 0.25 0"/>
<feBlend mode="normal" in2="BackgroundImageFix" result="effect1_dropShadow_37_4"/>
<feBlend mode="normal" in="SourceGraphic" in2="effect1_dropShadow_37_4" result="shape"/>
</filter>
</defs>
</svg>
