<svg width="60" height="60" viewBox="0 0 60 60" fill="none" xmlns="http://www.w3.org/2000/svg">
<rect width="60" height="60" rx="6" fill="#767676"/>
<rect x="2" y="2" width="56" height="56" rx="6" fill="#0F0F0F"/>
<path d="M7.84277 34.7188V32.8291C8.60449 33.4092 9.44531 33.6992 10.3652 33.6992C11.5957 33.6992 12.2109 33.3359 12.2109 32.6094C12.2109 32.4043 12.1582 32.2314 12.0527 32.0908C11.9473 31.9443 11.8037 31.8154 11.6221 31.7041C11.4463 31.5928 11.2354 31.4932 10.9893 31.4053C10.749 31.3174 10.4795 31.2178 10.1807 31.1064C9.81152 30.96 9.47754 30.8047 9.17871 30.6406C8.88574 30.4766 8.63965 30.292 8.44043 30.0869C8.24707 29.876 8.10059 29.6387 8.00098 29.375C7.90137 29.1113 7.85156 28.8037 7.85156 28.4521C7.85156 28.0186 7.9541 27.6377 8.15918 27.3096C8.36426 26.9756 8.63965 26.6973 8.98535 26.4746C9.33105 26.2461 9.72363 26.0762 10.1631 25.9648C10.6025 25.8477 11.0566 25.7891 11.5254 25.7891C12.3574 25.7891 13.1016 25.915 13.7578 26.167V27.9512C13.125 27.5176 12.3984 27.3008 11.5781 27.3008C11.3203 27.3008 11.0859 27.3271 10.875 27.3799C10.6699 27.4326 10.4941 27.5059 10.3477 27.5996C10.2012 27.6934 10.0869 27.8076 10.0049 27.9424C9.92285 28.0713 9.88184 28.2148 9.88184 28.373C9.88184 28.5664 9.92285 28.7305 10.0049 28.8652C10.0869 29 10.207 29.1201 10.3652 29.2256C10.5293 29.3252 10.7227 29.4189 10.9453 29.5068C11.1738 29.5889 11.4346 29.6797 11.7275 29.7793C12.1143 29.9375 12.46 30.0986 12.7646 30.2627C13.0752 30.4268 13.3389 30.6143 13.5557 30.8252C13.7725 31.0303 13.9395 31.2705 14.0566 31.5459C14.1738 31.8154 14.2324 32.1377 14.2324 32.5127C14.2324 32.9697 14.127 33.3682 13.916 33.708C13.7051 34.0479 13.4238 34.3291 13.0723 34.5518C12.7207 34.7744 12.3135 34.9385 11.8506 35.0439C11.3936 35.1553 10.9102 35.2109 10.4004 35.2109C9.41602 35.2109 8.56348 35.0469 7.84277 34.7188ZM18.249 33.6729H18.2139V39.1396H16.1748V26H18.2139V27.582H18.249C18.9463 26.3867 19.9658 25.7891 21.3076 25.7891C22.4502 25.7891 23.3408 26.1904 23.9795 26.9932C24.6182 27.7959 24.9375 28.874 24.9375 30.2275C24.9375 31.7275 24.5771 32.9287 23.8564 33.8311C23.1357 34.7334 22.1514 35.1846 20.9033 35.1846C19.7549 35.1846 18.8701 34.6807 18.249 33.6729ZM18.1963 30.1221V31.2383C18.1963 31.8945 18.4043 32.4512 18.8203 32.9082C19.2422 33.3652 19.7754 33.5938 20.4199 33.5938C21.1758 33.5938 21.7676 33.3008 22.1953 32.7148C22.6289 32.123 22.8457 31.2998 22.8457 30.2451C22.8457 29.3604 22.6436 28.6689 22.2393 28.1709C21.8408 27.667 21.2988 27.415 20.6133 27.415C19.8867 27.415 19.3008 27.6729 18.8555 28.1885C18.416 28.7041 18.1963 29.3486 18.1963 30.1221ZM33.7178 35H31.7402V33.5938H31.7051C31.084 34.6719 30.1729 35.2109 28.9717 35.2109C28.0869 35.2109 27.3926 34.9707 26.8887 34.4902C26.3906 34.0098 26.1416 33.374 26.1416 32.583C26.1416 30.8838 27.1201 29.8936 29.0771 29.6123L31.749 29.2344C31.749 27.9512 31.1396 27.3096 29.9209 27.3096C28.8486 27.3096 27.8818 27.6787 27.0205 28.417V26.6328C27.9697 26.0703 29.0654 25.7891 30.3076 25.7891C32.5811 25.7891 33.7178 26.9082 33.7178 29.1465V35ZM31.749 30.5791L29.8594 30.8428C29.2734 30.9189 28.8311 31.0625 28.5322 31.2734C28.2393 31.4785 28.0928 31.8418 28.0928 32.3633C28.0928 32.7441 28.2275 33.0576 28.4971 33.3037C28.7725 33.5439 29.1387 33.6641 29.5957 33.6641C30.2168 33.6641 30.7295 33.4473 31.1338 33.0137C31.5439 32.5742 31.749 32.0234 31.749 31.3613V30.5791ZM42.6562 34.5869C41.9355 35.0029 41.083 35.2109 40.0986 35.2109C38.7627 35.2109 37.6846 34.7949 36.8643 33.9629C36.0439 33.125 35.6338 32.041 35.6338 30.7109C35.6338 29.2285 36.0732 28.0391 36.9521 27.1426C37.8369 26.2402 39.0176 25.7891 40.4941 25.7891C41.3145 25.7891 42.0381 25.9326 42.665 26.2197V28.1182C42.0381 27.6494 41.3701 27.415 40.6611 27.415C39.7998 27.415 39.0938 27.708 38.543 28.2939C37.9922 28.874 37.7168 29.6357 37.7168 30.5791C37.7168 31.5107 37.9746 32.2461 38.4902 32.7852C39.0117 33.3242 39.709 33.5938 40.582 33.5938C41.3145 33.5938 42.0059 33.333 42.6562 32.8115V34.5869ZM52.3066 31.0537H46.1719C46.1953 31.8857 46.4502 32.5273 46.9365 32.9785C47.4287 33.4297 48.1025 33.6553 48.958 33.6553C49.9189 33.6553 50.8008 33.3682 51.6035 32.7939V34.4375C50.7832 34.9531 49.6992 35.2109 48.3516 35.2109C47.0273 35.2109 45.9873 34.8037 45.2314 33.9893C44.4814 33.1689 44.1064 32.0176 44.1064 30.5352C44.1064 29.1348 44.5195 27.9951 45.3457 27.1162C46.1777 26.2314 47.209 25.7891 48.4395 25.7891C49.6699 25.7891 50.6221 26.1846 51.2959 26.9756C51.9697 27.7666 52.3066 28.8652 52.3066 30.2715V31.0537ZM50.3379 29.6123C50.332 28.8799 50.1592 28.3115 49.8193 27.9072C49.4795 27.4971 49.0107 27.292 48.4131 27.292C47.8271 27.292 47.3291 27.5059 46.9189 27.9336C46.5146 28.3613 46.2656 28.9209 46.1719 29.6123H50.3379Z" fill="#767676"/>
</svg>
