<svg width="58" height="60" viewBox="0 0 58 60" fill="none" xmlns="http://www.w3.org/2000/svg">
<rect width="58" height="60" rx="6" fill="#D9D9D9"/>
<rect x="1.93335" y="2" width="54.1333" height="56" rx="6" fill="#0F0F0F"/>
<path d="M6.84277 34.7188V32.8291C7.60449 33.4092 8.44531 33.6992 9.36523 33.6992C10.5957 33.6992 11.2109 33.3359 11.2109 32.6094C11.2109 32.4043 11.1582 32.2314 11.0527 32.0908C10.9473 31.9443 10.8037 31.8154 10.6221 31.7041C10.4463 31.5928 10.2354 31.4932 9.98926 31.4053C9.74902 31.3174 9.47949 31.2178 9.18066 31.1064C8.81152 30.96 8.47754 30.8047 8.17871 30.6406C7.88574 30.4766 7.63965 30.292 7.44043 30.0869C7.24707 29.876 7.10059 29.6387 7.00098 29.375C6.90137 29.1113 6.85156 28.8037 6.85156 28.4521C6.85156 28.0186 6.9541 27.6377 7.15918 27.3096C7.36426 26.9756 7.63965 26.6973 7.98535 26.4746C8.33105 26.2461 8.72363 26.0762 9.16309 25.9648C9.60254 25.8477 10.0566 25.7891 10.5254 25.7891C11.3574 25.7891 12.1016 25.915 12.7578 26.167V27.9512C12.125 27.5176 11.3984 27.3008 10.5781 27.3008C10.3203 27.3008 10.0859 27.3271 9.875 27.3799C9.66992 27.4326 9.49414 27.5059 9.34766 27.5996C9.20117 27.6934 9.08691 27.8076 9.00488 27.9424C8.92285 28.0713 8.88184 28.2148 8.88184 28.373C8.88184 28.5664 8.92285 28.7305 9.00488 28.8652C9.08691 29 9.20703 29.1201 9.36523 29.2256C9.5293 29.3252 9.72266 29.4189 9.94531 29.5068C10.1738 29.5889 10.4346 29.6797 10.7275 29.7793C11.1143 29.9375 11.46 30.0986 11.7646 30.2627C12.0752 30.4268 12.3389 30.6143 12.5557 30.8252C12.7725 31.0303 12.9395 31.2705 13.0566 31.5459C13.1738 31.8154 13.2324 32.1377 13.2324 32.5127C13.2324 32.9697 13.127 33.3682 12.916 33.708C12.7051 34.0479 12.4238 34.3291 12.0723 34.5518C11.7207 34.7744 11.3135 34.9385 10.8506 35.0439C10.3936 35.1553 9.91016 35.2109 9.40039 35.2109C8.41602 35.2109 7.56348 35.0469 6.84277 34.7188ZM17.249 33.6729H17.2139V39.1396H15.1748V26H17.2139V27.582H17.249C17.9463 26.3867 18.9658 25.7891 20.3076 25.7891C21.4502 25.7891 22.3408 26.1904 22.9795 26.9932C23.6182 27.7959 23.9375 28.874 23.9375 30.2275C23.9375 31.7275 23.5771 32.9287 22.8564 33.8311C22.1357 34.7334 21.1514 35.1846 19.9033 35.1846C18.7549 35.1846 17.8701 34.6807 17.249 33.6729ZM17.1963 30.1221V31.2383C17.1963 31.8945 17.4043 32.4512 17.8203 32.9082C18.2422 33.3652 18.7754 33.5938 19.4199 33.5938C20.1758 33.5938 20.7676 33.3008 21.1953 32.7148C21.6289 32.123 21.8457 31.2998 21.8457 30.2451C21.8457 29.3604 21.6436 28.6689 21.2393 28.1709C20.8408 27.667 20.2988 27.415 19.6133 27.415C18.8867 27.415 18.3008 27.6729 17.8555 28.1885C17.416 28.7041 17.1963 29.3486 17.1963 30.1221ZM32.7178 35H30.7402V33.5938H30.7051C30.084 34.6719 29.1729 35.2109 27.9717 35.2109C27.0869 35.2109 26.3926 34.9707 25.8887 34.4902C25.3906 34.0098 25.1416 33.374 25.1416 32.583C25.1416 30.8838 26.1201 29.8936 28.0771 29.6123L30.749 29.2344C30.749 27.9512 30.1396 27.3096 28.9209 27.3096C27.8486 27.3096 26.8818 27.6787 26.0205 28.417V26.6328C26.9697 26.0703 28.0654 25.7891 29.3076 25.7891C31.5811 25.7891 32.7178 26.9082 32.7178 29.1465V35ZM30.749 30.5791L28.8594 30.8428C28.2734 30.9189 27.8311 31.0625 27.5322 31.2734C27.2393 31.4785 27.0928 31.8418 27.0928 32.3633C27.0928 32.7441 27.2275 33.0576 27.4971 33.3037C27.7725 33.5439 28.1387 33.6641 28.5957 33.6641C29.2168 33.6641 29.7295 33.4473 30.1338 33.0137C30.5439 32.5742 30.749 32.0234 30.749 31.3613V30.5791ZM41.6562 34.5869C40.9355 35.0029 40.083 35.2109 39.0986 35.2109C37.7627 35.2109 36.6846 34.7949 35.8643 33.9629C35.0439 33.125 34.6338 32.041 34.6338 30.7109C34.6338 29.2285 35.0732 28.0391 35.9521 27.1426C36.8369 26.2402 38.0176 25.7891 39.4941 25.7891C40.3145 25.7891 41.0381 25.9326 41.665 26.2197V28.1182C41.0381 27.6494 40.3701 27.415 39.6611 27.415C38.7998 27.415 38.0938 27.708 37.543 28.2939C36.9922 28.874 36.7168 29.6357 36.7168 30.5791C36.7168 31.5107 36.9746 32.2461 37.4902 32.7852C38.0117 33.3242 38.709 33.5938 39.582 33.5938C40.3145 33.5938 41.0059 33.333 41.6562 32.8115V34.5869ZM51.3066 31.0537H45.1719C45.1953 31.8857 45.4502 32.5273 45.9365 32.9785C46.4287 33.4297 47.1025 33.6553 47.958 33.6553C48.9189 33.6553 49.8008 33.3682 50.6035 32.7939V34.4375C49.7832 34.9531 48.6992 35.2109 47.3516 35.2109C46.0273 35.2109 44.9873 34.8037 44.2314 33.9893C43.4814 33.1689 43.1064 32.0176 43.1064 30.5352C43.1064 29.1348 43.5195 27.9951 44.3457 27.1162C45.1777 26.2314 46.209 25.7891 47.4395 25.7891C48.6699 25.7891 49.6221 26.1846 50.2959 26.9756C50.9697 27.7666 51.3066 28.8652 51.3066 30.2715V31.0537ZM49.3379 29.6123C49.332 28.8799 49.1592 28.3115 48.8193 27.9072C48.4795 27.4971 48.0107 27.292 47.4131 27.292C46.8271 27.292 46.3291 27.5059 45.9189 27.9336C45.5146 28.3613 45.2656 28.9209 45.1719 29.6123H49.3379Z" fill="#D9D9D9"/>
</svg>
