<svg width="60" height="60" viewBox="0 0 60 60" fill="none" xmlns="http://www.w3.org/2000/svg">
<rect x="2" y="2" width="56" height="56" rx="6" fill="#0F0F0F"/>
<path d="M23.4082 33.4229H13.1836C13.2227 34.8096 13.6475 35.8789 14.458 36.6309C15.2783 37.3828 16.4014 37.7588 17.8271 37.7588C19.4287 37.7588 20.8984 37.2803 22.2363 36.3232V39.0625C20.8691 39.9219 19.0625 40.3516 16.8164 40.3516C14.6094 40.3516 12.876 39.6729 11.6162 38.3154C10.3662 36.9482 9.74121 35.0293 9.74121 32.5586C9.74121 30.2246 10.4297 28.3252 11.8066 26.8604C13.1934 25.3857 14.9121 24.6484 16.9629 24.6484C19.0137 24.6484 20.6006 25.3076 21.7236 26.626C22.8467 27.9443 23.4082 29.7754 23.4082 32.1191V33.4229ZM20.127 31.0205C20.1172 29.7998 19.8291 28.8525 19.2627 28.1787C18.6963 27.4951 17.915 27.1533 16.9189 27.1533C15.9424 27.1533 15.1123 27.5098 14.4287 28.2227C13.7549 28.9355 13.3398 29.8682 13.1836 31.0205H20.127ZM25.708 39.5312V36.3818C26.9775 37.3486 28.3789 37.832 29.9121 37.832C31.9629 37.832 32.9883 37.2266 32.9883 36.0156C32.9883 35.6738 32.9004 35.3857 32.7246 35.1514C32.5488 34.9072 32.3096 34.6924 32.0068 34.5068C31.7139 34.3213 31.3623 34.1553 30.9521 34.0088C30.5518 33.8623 30.1025 33.6963 29.6045 33.5107C28.9893 33.2666 28.4326 33.0078 27.9346 32.7344C27.4463 32.4609 27.0361 32.1533 26.7041 31.8115C26.3818 31.46 26.1377 31.0645 25.9717 30.625C25.8057 30.1855 25.7227 29.6729 25.7227 29.0869C25.7227 28.3643 25.8936 27.7295 26.2354 27.1826C26.5771 26.626 27.0361 26.1621 27.6123 25.791C28.1885 25.4102 28.8428 25.127 29.5752 24.9414C30.3076 24.7461 31.0645 24.6484 31.8457 24.6484C33.2324 24.6484 34.4727 24.8584 35.5664 25.2783V28.252C34.5117 27.5293 33.3008 27.168 31.9336 27.168C31.5039 27.168 31.1133 27.2119 30.7617 27.2998C30.4199 27.3877 30.127 27.5098 29.8828 27.666C29.6387 27.8223 29.4482 28.0127 29.3115 28.2373C29.1748 28.4521 29.1064 28.6914 29.1064 28.9551C29.1064 29.2773 29.1748 29.5508 29.3115 29.7754C29.4482 30 29.6484 30.2002 29.9121 30.376C30.1855 30.542 30.5078 30.6982 30.8789 30.8447C31.2598 30.9814 31.6943 31.1328 32.1826 31.2988C32.8271 31.5625 33.4033 31.8311 33.9111 32.1045C34.4287 32.3779 34.8682 32.6904 35.2295 33.042C35.5908 33.3838 35.8691 33.7842 36.0645 34.2432C36.2598 34.6924 36.3574 35.2295 36.3574 35.8545C36.3574 36.6162 36.1816 37.2803 35.8301 37.8467C35.4785 38.4131 35.0098 38.8818 34.4238 39.2529C33.8379 39.624 33.1592 39.8975 32.3877 40.0732C31.626 40.2588 30.8203 40.3516 29.9707 40.3516C28.3301 40.3516 26.9092 40.0781 25.708 39.5312ZM50.332 39.3115C49.1309 40.0049 47.71 40.3516 46.0693 40.3516C43.8428 40.3516 42.0459 39.6582 40.6787 38.2715C39.3115 36.875 38.6279 35.0684 38.6279 32.8516C38.6279 30.3809 39.3604 28.3984 40.8252 26.9043C42.2998 25.4004 44.2676 24.6484 46.7285 24.6484C48.0957 24.6484 49.3018 24.8877 50.3467 25.3662V28.5303C49.3018 27.749 48.1885 27.3584 47.0068 27.3584C45.5713 27.3584 44.3945 27.8467 43.4766 28.8232C42.5586 29.79 42.0996 31.0596 42.0996 32.6318C42.0996 34.1846 42.5293 35.4102 43.3887 36.3086C44.2578 37.207 45.4199 37.6562 46.875 37.6562C48.0957 37.6562 49.248 37.2217 50.332 36.3525V39.3115Z" fill="#767676"/>
</svg>
