<svg width="91" height="174" viewBox="0 0 91 174" fill="none" xmlns="http://www.w3.org/2000/svg">
<path fill-rule="evenodd" clip-rule="evenodd" d="M84.5856 30.5193C86.0024 30.734 87.3249 29.7594 87.5396 28.3427C87.7542 26.9259 86.7797 25.6033 85.3629 25.3887C83.9461 25.174 82.6236 26.1485 82.4089 27.5653C82.1943 28.9821 83.1688 30.3047 84.5856 30.5193ZM84.6827 29.878C85.7453 30.039 86.7372 29.3081 86.8982 28.2455C87.0592 27.1829 86.3283 26.191 85.2657 26.03C84.2031 25.869 83.2112 26.5999 83.0502 27.6625C82.8892 28.7251 83.6201 29.717 84.6827 29.878Z" fill="#A4C0C1"/>
<path d="M84.3621 29.8294L85.0035 29.9265L84.2504 34.8968C84.1028 35.8709 84.7728 36.7801 85.7469 36.9277V36.9277C86.7209 37.0753 87.6301 36.4053 87.7777 35.4313L87.8506 34.9503L88.4919 35.0474L88.419 35.5284C88.2178 36.8567 86.9779 37.7703 85.6497 37.569V37.569C84.3214 37.3678 83.4078 36.1279 83.6091 34.7997L84.3621 29.8294Z" fill="#A4C0C1"/>
<path d="M88.2684 34.3576L88.6532 34.8798L87.3477 35.8417C87.2035 35.948 87.0005 35.9172 86.8942 35.773V35.773C86.7879 35.6288 86.8187 35.4258 86.9629 35.3195L88.2684 34.3576Z" fill="#A4C0C1"/>
<path d="M87.7462 34.7424L88.2684 34.3576L89.2304 35.6631C89.3366 35.8073 89.3059 36.0103 89.1617 36.1166V36.1166C89.0175 36.2229 88.8144 36.1921 88.7082 36.0479L87.7462 34.7424Z" fill="#A4C0C1"/>
<rect x="38" y="84" width="6" height="78" fill="#725431"/>
<rect x="35" y="78" width="12" height="12" rx="6" fill="#725431"/>
<path d="M86.1376 10.9807L87.09 11.2857L48.4659 61.3924L20.1465 113.749L4.28556 163.271L2.08616e-06 161.899L16.3371 112.529L46.5612 60.7824L86.1376 10.9807Z" fill="#793B3B"/>
<circle cx="18.5" cy="128.5" r="5.5" fill="#353535"/>
<line x1="86.4989" y1="11.0333" x2="85.4989" y2="26.0333" stroke="#DBDBDB"/>
</svg>
