<svg width="38" height="45" viewBox="0 0 38 45" fill="none" xmlns="http://www.w3.org/2000/svg">
<path fill-rule="evenodd" clip-rule="evenodd" d="M15.6795 18.2948C19.7512 20.0102 24.4425 18.1 26.1579 14.0283C27.8733 9.95662 25.9631 5.26528 21.8914 3.54992C17.8197 1.83456 13.1283 3.74475 11.413 7.81644C9.69762 11.8881 11.6078 16.5795 15.6795 18.2948ZM16.456 16.4517C19.5098 17.7382 23.0283 16.3056 24.3148 13.2518C25.6013 10.1981 24.1687 6.67956 21.1149 5.39304C18.0611 4.10652 14.5426 5.53916 13.2561 8.59293C11.9696 11.6467 13.4022 15.1652 16.456 16.4517Z" fill="#A4C0C1"/>
<path d="M15.5344 16.0635L17.3775 16.84L11.3598 31.1241C10.1805 33.9234 11.4937 37.1487 14.293 38.328V38.328C17.0923 39.5073 20.3176 38.1941 21.4969 35.3948L22.0793 34.0124L23.9224 34.7889L23.34 36.1712C21.7319 39.9885 17.3337 41.7793 13.5165 40.1711V40.1711C9.69932 38.563 7.90852 34.1648 9.51667 30.3476L15.5344 16.0635Z" fill="#A4C0C1"/>
<path d="M23.7773 32.5576L24.5316 34.4099L19.9007 36.2954C19.3892 36.5037 18.8057 36.2579 18.5974 35.7464V35.7464C18.3892 35.2349 18.635 34.6514 19.1465 34.4431L23.7773 32.5576Z" fill="#A4C0C1"/>
<path d="M21.925 33.3118L23.7773 32.5576L25.6629 37.1884C25.8712 37.6999 25.6253 38.2834 25.1138 38.4917V38.4917C24.6023 38.7 24.0188 38.4541 23.8105 37.9426L21.925 33.3118Z" fill="#A4C0C1"/>
</svg>
