<svg width="45" height="45" viewBox="0 0 45 45" fill="none" xmlns="http://www.w3.org/2000/svg">
<path fill-rule="evenodd" clip-rule="evenodd" d="M17.932 23.8929C21.0562 20.7687 21.0562 15.7034 17.932 12.5792C14.8079 9.45502 9.74253 9.45502 6.61834 12.5792C3.49415 15.7034 3.49415 20.7687 6.61834 23.8929C9.74253 27.0171 14.8079 27.0171 17.932 23.8929ZM16.5178 22.4787C18.861 20.1356 18.861 16.3366 16.5178 13.9934C14.1747 11.6503 10.3757 11.6503 8.03255 13.9934C5.68941 16.3366 5.68941 20.1356 8.03255 22.4787C10.3757 24.8219 14.1747 24.8219 16.5178 22.4787Z" fill="#A4C0C1"/>
<path d="M15.8107 23.1858L17.2249 21.7716L28.1851 32.7318C30.333 34.8796 33.8154 34.8796 35.9633 32.7318C38.1112 30.5839 38.1112 27.1015 35.9633 24.9536L34.9026 23.8929L36.3168 22.4787L37.3775 23.5394C40.3064 26.4683 40.3064 31.217 37.3775 34.146C34.4486 37.0749 29.6998 37.0749 26.7709 34.146L15.8107 23.1858Z" fill="#A4C0C1"/>
<path d="M34.1955 21.7716H36.1955V26.7716C36.1955 27.3239 35.7478 27.7716 35.1955 27.7716C34.6432 27.7716 34.1955 27.3239 34.1955 26.7716V21.7716Z" fill="#A4C0C1"/>
<path d="M34.1955 23.7716V21.7716H39.1955C39.7478 21.7716 40.1955 22.2193 40.1955 22.7716C40.1955 23.3239 39.7478 23.7716 39.1955 23.7716H34.1955Z" fill="#A4C0C1"/>
</svg>
