<svg width="876" height="560" viewBox="0 0 876 560" fill="none" xmlns="http://www.w3.org/2000/svg">
<rect x="135" y="138" width="607" height="276" fill="#A42A2A"/>
<rect x="36" y="560" width="107" height="28" transform="rotate(-90 36 560)" fill="#543E25"/>
<rect x="327" y="559" width="107" height="28" transform="rotate(-90 327 559)" fill="#543E25"/>
<rect x="230" y="560" width="107" height="28" transform="rotate(-90 230 560)" fill="#543E25"/>
<rect x="133" y="560" width="107" height="28" transform="rotate(-90 133 560)" fill="#543E25"/>
<rect x="424" y="559" width="107" height="28" transform="rotate(-90 424 559)" fill="#543E25"/>
<rect x="715" y="559" width="107" height="28" transform="rotate(-90 715 559)" fill="#543E25"/>
<rect x="812" y="559" width="107" height="28" transform="rotate(-90 812 559)" fill="#543E25"/>
<rect x="618" y="559" width="107" height="28" transform="rotate(-90 618 559)" fill="#543E25"/>
<rect x="521" y="559" width="107" height="28" transform="rotate(-90 521 559)" fill="#543E25"/>
<rect y="414" width="876" height="39" fill="#725431"/>
<rect x="224" y="430" width="207" height="26" fill="#674C2E"/>
<rect x="184" y="534" width="287" height="26" fill="#3D2B17"/>
<rect x="194" y="508" width="267" height="26" fill="#4B361E"/>
<rect x="204" y="482" width="247" height="26" fill="#553D22"/>
<rect x="214" y="456" width="227" height="26" fill="#5F4528"/>
<rect x="461" y="231" width="194" height="125" fill="#543E25"/>
<rect x="468" y="236" width="181" height="114" fill="#99CBD9"/>
<rect x="555" y="236" width="6" height="114" fill="#543E25"/>
<rect x="274" y="231" width="107" height="183" fill="#674C2E"/>
<rect x="303" y="254" width="48" height="137" rx="1" fill="#896842"/>
<rect x="305" y="256" width="44" height="133" rx="1" fill="#775B3A"/>
<circle cx="367" cy="323" r="7" fill="#594227"/>
<circle cx="367" cy="322" r="7" fill="#9A9793"/>
<circle cx="367" cy="322" r="4" fill="#88837D"/>
<rect x="616" width="33" height="87" fill="#737373"/>
<path d="M136 54H746L776 138H106L136 54Z" fill="#553D22"/>
</svg>
