<svg width="430" height="372" viewBox="0 0 430 372" fill="none" xmlns="http://www.w3.org/2000/svg">
<rect y="105" width="430" height="267" fill="#9E7342"/>
<rect x="64" y="189" width="107" height="183" fill="#674C2E"/>
<rect x="93" y="212" width="48" height="137" rx="1" fill="#896842"/>
<rect x="95" y="214" width="44" height="133" rx="1" fill="#775B3A"/>
<circle cx="157" cy="281" r="7" fill="#594227"/>
<circle cx="157" cy="280" r="7" fill="#9A9793"/>
<circle cx="157" cy="280" r="4" fill="#88837D"/>
<rect x="207" y="189" width="194" height="114" fill="#252525"/>
<path d="M81.2044 22.9998L361.364 55.1646L348.5 166.5L68.5 133L81.2044 22.9998Z" fill="#41301C"/>
<rect x="81.2044" y="23" width="282" height="107" transform="rotate(6.5494 81.2044 23)" fill="#674C2E"/>
<path d="M181.983 110.755L187.944 65.6934L190.831 66.0753L184.87 111.137L181.983 110.755ZM195.872 80.4973C195.897 78.6856 195.224 77.1876 193.852 76.0032C192.48 74.8188 190.703 74.0822 188.52 73.7935C186.924 73.5824 185.494 73.6558 184.229 74.0138C182.975 74.3734 181.954 74.9607 181.166 75.7759C180.389 76.5925 179.925 77.5759 179.772 78.7259C179.645 79.6881 179.765 80.5457 180.131 81.2986C180.51 82.0413 181.033 82.6896 181.7 83.2435C182.369 83.7857 183.083 84.2562 183.842 84.6552C184.603 85.0424 185.306 85.3682 185.951 85.6327L189.482 87.1027C190.388 87.4733 191.388 87.9518 192.48 88.5381C193.585 89.126 194.615 89.8653 195.572 90.756C196.542 91.6366 197.297 92.7035 197.835 93.9568C198.374 95.2102 198.532 96.6818 198.308 98.3716C198.05 100.32 197.307 102.012 196.078 103.45C194.861 104.889 193.217 105.943 191.146 106.612C189.088 107.283 186.673 107.436 183.904 107.069C181.322 106.728 179.142 106.015 177.363 104.932C175.595 103.851 174.27 102.493 173.388 100.86C172.517 99.2288 172.142 97.4179 172.262 95.4278L176.768 96.0239C176.705 97.4006 177.014 98.5877 177.694 99.5851C178.387 100.572 179.321 101.365 180.496 101.962C181.684 102.549 182.994 102.937 184.425 103.126C186.092 103.347 187.624 103.275 189.021 102.91C190.42 102.534 191.571 101.91 192.475 101.039C193.38 100.155 193.919 99.0567 194.093 97.7424C194.251 96.5454 194.045 95.5272 193.476 94.6877C192.906 93.8482 192.107 93.1215 191.078 92.5078C190.048 91.894 188.923 91.3273 187.703 90.8076L183.434 88.9535C180.725 87.7713 178.648 86.3204 177.204 84.6011C175.76 82.8817 175.199 80.8074 175.52 78.3783C175.787 76.3599 176.565 74.6718 177.855 73.3141C179.159 71.9462 180.793 70.9683 182.757 70.3804C184.735 69.7823 186.873 69.6354 189.173 69.9396C191.497 70.2469 193.507 70.9367 195.204 72.0089C196.903 73.0694 198.185 74.3853 199.052 75.9567C199.931 77.5296 200.279 79.2294 200.097 81.0561L195.872 80.4973ZM213.593 114.937L219.553 69.8745L222.44 70.2564L216.48 115.318L213.593 114.937ZM227.482 84.6784C227.507 82.8668 226.833 81.3687 225.461 80.1843C224.09 78.9999 222.312 78.2633 220.13 77.9746C218.534 77.7635 217.103 77.837 215.838 78.195C214.584 78.5545 213.563 79.1419 212.775 79.957C211.998 80.7736 211.534 81.757 211.382 82.907C211.255 83.8693 211.374 84.7268 211.74 85.4797C212.119 86.2225 212.643 86.8708 213.31 87.4247C213.978 87.9668 214.692 88.4374 215.451 88.8363C216.212 89.2235 216.915 89.5493 217.561 89.8138L221.092 91.2839C221.998 91.6545 222.997 92.1329 224.09 92.7192C225.194 93.3071 226.225 94.0464 227.182 94.9371C228.152 95.8177 228.906 96.8846 229.445 98.138C229.983 99.3913 230.141 100.863 229.917 102.553C229.66 104.501 228.916 106.193 227.688 107.631C226.47 109.07 224.826 110.124 222.756 110.793C220.697 111.464 218.283 111.617 215.513 111.25C212.932 110.909 210.751 110.197 208.972 109.113C207.205 108.032 205.88 106.675 204.997 105.041C204.127 103.41 203.751 101.599 203.871 99.6089L208.377 100.205C208.315 101.582 208.623 102.769 209.303 103.766C209.997 104.753 210.931 105.546 212.105 106.143C213.293 106.73 214.603 107.118 216.035 107.307C217.701 107.528 219.233 107.456 220.631 107.091C222.03 106.715 223.181 106.091 224.084 105.22C224.989 104.337 225.528 103.238 225.702 101.923C225.861 100.727 225.655 99.7083 225.085 98.8688C224.516 98.0293 223.716 97.3026 222.687 96.6889C221.658 96.0751 220.533 95.5084 219.312 94.9887L215.044 93.1346C212.335 91.9524 210.258 90.5016 208.814 88.7822C207.37 87.0628 206.808 84.9886 207.129 82.5594C207.396 80.541 208.175 78.853 209.465 77.4953C210.768 76.1274 212.402 75.1494 214.366 74.5615C216.344 73.9634 218.483 73.8165 220.783 74.1207C223.106 74.4281 225.117 75.1178 226.814 76.1901C228.512 77.2505 229.795 78.5665 230.662 80.1378C231.54 81.7107 231.888 83.4105 231.706 85.2372L227.482 84.6784ZM245.202 119.118L251.163 74.0557L254.05 74.4375L248.089 119.5L245.202 119.118ZM259.091 88.8595C259.116 87.0479 258.442 85.5498 257.071 84.3654C255.699 83.181 253.922 82.4444 251.739 82.1557C250.143 81.9446 248.713 82.0181 247.447 82.3761C246.194 82.7356 245.173 83.323 244.385 84.1381C243.608 84.9548 243.143 85.9381 242.991 87.0881C242.864 88.0504 242.983 88.908 243.35 89.6609C243.729 90.4036 244.252 91.0519 244.919 91.6058C245.588 92.1479 246.302 92.6185 247.061 93.0174C247.821 93.4046 248.525 93.7304 249.17 93.9949L252.701 95.465C253.607 95.8356 254.607 96.314 255.699 96.9004C256.804 97.4882 257.834 98.2275 258.791 99.1183C259.761 99.9988 260.515 101.066 261.054 102.319C261.593 103.572 261.75 105.044 261.527 106.734C261.269 108.682 260.526 110.375 259.297 111.812C258.08 113.251 256.436 114.305 254.365 114.975C252.306 115.645 249.892 115.798 247.123 115.431C244.541 115.09 242.361 114.378 240.582 113.295C238.814 112.213 237.489 110.856 236.607 109.223C235.736 107.591 235.361 105.78 235.481 103.79L239.987 104.386C239.924 105.763 240.233 106.95 240.913 107.947C241.606 108.935 242.54 109.727 243.715 110.324C244.903 110.911 246.213 111.299 247.644 111.489C249.311 111.709 250.843 111.637 252.24 111.273C253.639 110.896 254.79 110.273 255.694 109.401C256.598 108.518 257.138 107.419 257.312 106.105C257.47 104.908 257.264 103.889 256.695 103.05C256.125 102.21 255.326 101.484 254.297 100.87C253.267 100.256 252.142 99.6895 250.922 99.1699L246.653 97.3157C243.944 96.1335 241.867 94.6827 240.423 92.9633C238.979 91.2439 238.418 89.1697 238.739 86.7405C239.006 84.7221 239.784 83.0341 241.074 81.6764C242.378 80.3085 244.011 79.3306 245.976 78.7426C247.953 78.1445 250.092 77.9976 252.392 78.3018C254.716 78.6092 256.726 79.299 258.423 80.3712C260.122 81.4317 261.404 82.7476 262.271 84.3189C263.149 85.8919 263.498 87.5917 263.316 89.4183L259.091 88.8595Z" fill="#59DA75"/>
</svg>
