<svg width="68" height="50" viewBox="0 0 68 50" fill="none" xmlns="http://www.w3.org/2000/svg">
<rect x="0.5" y="15.5" width="41" height="19" rx="3.5" fill="#FFD35A"/>
<rect x="0.5" y="15.5" width="41" height="19" rx="3.5" stroke="black"/>
<rect x="0.5" y="15.5" width="41" height="19" rx="3.5" stroke="black" stroke-opacity="0.2"/>
<path d="M64.8925 26.2854L34.7731 44.3994C33.7733 45.0007 32.5 44.2806 32.5 43.114V6.88601C32.5 5.71937 33.7733 4.9993 34.7731 5.60057L64.8925 23.7146C65.8617 24.2975 65.8617 25.7025 64.8925 26.2854Z" fill="#FFD35A"/>
<path d="M64.8925 26.2854L34.7731 44.3994C33.7733 45.0007 32.5 44.2806 32.5 43.114V6.88601C32.5 5.71937 33.7733 4.9993 34.7731 5.60057L64.8925 23.7146C65.8617 24.2975 65.8617 25.7025 64.8925 26.2854Z" stroke="black"/>
<path d="M64.8925 26.2854L34.7731 44.3994C33.7733 45.0007 32.5 44.2806 32.5 43.114V6.88601C32.5 5.71937 33.7733 4.9993 34.7731 5.60057L64.8925 23.7146C65.8617 24.2975 65.8617 25.7025 64.8925 26.2854Z" stroke="black" stroke-opacity="0.2"/>
</svg>
