<svg width="60" height="60" viewBox="0 0 60 60" fill="none" xmlns="http://www.w3.org/2000/svg">
<rect width="60" height="60" rx="6" transform="matrix(-1 0 0 1 60 0)" fill="#D9D9D9"/>
<rect width="56" height="56" rx="6" transform="matrix(-1 0 0 1 58 2)" fill="#0F0F0F"/>
<path d="M22 31C21.4477 31 21 30.5523 21 30C21 29.4477 21.4477 29 22 29V31ZM37.7071 29.2929C38.0976 29.6834 38.0976 30.3166 37.7071 30.7071L31.3431 37.0711C30.9526 37.4616 30.3195 37.4616 29.9289 37.0711C29.5384 36.6805 29.5384 36.0474 29.9289 35.6569L35.5858 30L29.9289 24.3431C29.5384 23.9526 29.5384 23.3195 29.9289 22.9289C30.3195 22.5384 30.9526 22.5384 31.3431 22.9289L37.7071 29.2929ZM22 29L37 29V31H22V29Z" fill="#D9D9D9"/>
</svg>
