<svg width="61" height="60" viewBox="0 0 61 60" fill="none" xmlns="http://www.w3.org/2000/svg">
<rect width="56" height="56" rx="6" transform="matrix(-1 0 0 1 58 2)" fill="#0F0F0F"/>
<path d="M23 30C22.4477 30 22 29.5523 22 29C22 28.4477 22.4477 28 23 28V30ZM38.7071 28.2929C39.0976 28.6834 39.0976 29.3166 38.7071 29.7071L32.3431 36.0711C31.9526 36.4616 31.3195 36.4616 30.9289 36.0711C30.5384 35.6805 30.5384 35.0474 30.9289 34.6569L36.5858 29L30.9289 23.3431C30.5384 22.9526 30.5384 22.3195 30.9289 21.9289C31.3195 21.5384 31.9526 21.5384 32.3431 21.9289L38.7071 28.2929ZM23 28L38 28V30H23V28Z" fill="#767676"/>
</svg>
