<svg width="60" height="60" viewBox="0 0 60 60" fill="none" xmlns="http://www.w3.org/2000/svg">
<rect width="60" height="60" rx="6" fill="#D9D9D9"/>
<rect x="2" y="2" width="56" height="56" rx="6" fill="#0F0F0F"/>
<path d="M38 31C38.5523 31 39 30.5523 39 30C39 29.4477 38.5523 29 38 29V31ZM22.2929 29.2929C21.9024 29.6834 21.9024 30.3166 22.2929 30.7071L28.6569 37.0711C29.0474 37.4616 29.6805 37.4616 30.0711 37.0711C30.4616 36.6805 30.4616 36.0474 30.0711 35.6569L24.4142 30L30.0711 24.3431C30.4616 23.9526 30.4616 23.3195 30.0711 22.9289C29.6805 22.5384 29.0474 22.5384 28.6569 22.9289L22.2929 29.2929ZM38 29L23 29V31H38V29Z" fill="#D9D9D9"/>
</svg>
