<svg width="61" height="60" viewBox="0 0 61 60" fill="none" xmlns="http://www.w3.org/2000/svg">
<rect x="3" y="2" width="56" height="56" rx="6" fill="#0F0F0F"/>
<path d="M38 30C38.5523 30 39 29.5523 39 29C39 28.4477 38.5523 28 38 28V30ZM22.2929 28.2929C21.9024 28.6834 21.9024 29.3166 22.2929 29.7071L28.6569 36.0711C29.0474 36.4616 29.6805 36.4616 30.0711 36.0711C30.4616 35.6805 30.4616 35.0474 30.0711 34.6569L24.4142 29L30.0711 23.3431C30.4616 22.9526 30.4616 22.3195 30.0711 21.9289C29.6805 21.5384 29.0474 21.5384 28.6569 21.9289L22.2929 28.2929ZM38 28L23 28V30H38V28Z" fill="#767676"/>
</svg>
